<svg xmlns="http://www.w3.org/2000/svg" viewBox="0 0 94.05 94.71"><defs><style>.cls-1{fill:#ee4694;}</style></defs><g id="Layer_3" data-name="Layer 3"><path class="cls-1" d="M276.59,227c-5.31,1.18-9.69,6.86-9.11,12.29.07.6,0,1.31.71,1.56s1-.34,1.38-.69a10.15,10.15,0,0,1,2.65-1.84,5.3,5.3,0,0,1,5.49.93c1.42,1.45,1,3.11.41,4.73-1.62,4.09-7.51,5.74-11.83,3.33-4.78-2.67-6.63-8.9-4.39-14.78,1.35-3.54,3.79-6.38,6-9.32,2.68-3.49,5.25-7,6.81-11.2,3.75-10.07-.89-19-11.35-21.46a22.78,22.78,0,0,0-12.41.54c-6.12,2-10.59,6.11-13.86,11.54a2.17,2.17,0,0,1-2.9,1.22c-9.81-2.54-19.19-1.42-27.81,4a23.57,23.57,0,0,0-10.74,14.2c-.75,2.83-.56,3.08,2.29,3.87,1.41.4,1.07,1.69,1.32,2.67a1.06,1.06,0,0,1,0,.67,2.29,2.29,0,0,1,0,.64,1.88,1.88,0,0,1,0,.53,2.1,2.1,0,0,1-.05.79,2.27,2.27,0,0,1,.06.78c.17.37,0,.84-.49,1.37-.85,1.05-1.74,2.06-2.63,3.07-1,1.17-1.19,2.24.25,3.22.55.38,1.4.89,1.11,1.53-.73,1.57,0,2.85.2,4.31.16,1.28,1.17,2,1.21,3.31.08,2.69,1.29,3.69,4,3.76a45.07,45.07,0,0,0,8.43-1c5-.83,6.86.75,6.6,5.8a11.33,11.33,0,0,1-.28,2,37.75,37.75,0,0,1-6.41,13.88c-2.35,3.22-5.42,5.62-8.5,8-.51.39-1.21.84-1,1.62s1,.81,1.66.92a44.69,44.69,0,0,0,9.53.76c5.5.32,11-.91,16.44-2.66a31,31,0,0,0,6.64-3c1.38-.85,1.67-1.83.32-3.06s-2.42-2.35-3.59-3.57c-5.13-5.38-5.94-12-2.3-18.41a32.35,32.35,0,0,1,5.27-6.66c5.35-5.45,9.56-11.53,11.11-19.18,1.24-6.12.81-12-2.81-17.28-.69-1-.43-1.5.34-2.17a13.08,13.08,0,0,1,8.47-3.42c4.64-.13,7.22,3.22,6.16,7.73a30.19,30.19,0,0,1-2.61,6.58,43.12,43.12,0,0,0-3.76,10.89c-1.24,6.2-.86,12.18,3.13,17.38,3.62,4.72,8.65,6.88,14.54,7.33,9.93.77,17.49-5,18.92-14.8C290.29,232.92,285.44,225,276.59,227Z" transform="translate(-195.31 -189.91)"/></g></svg>